# xmcd
#
# Track frame offsets: 
#        150
#        10767
#        21629
#        31891
#        44342
#        63690
#        77394
#        88895
#        99365
#        109438
#        125103
#        133798
#        144668
#        156636
#        164596
#        178595
#        194586
#
# Disc length: 2930 seconds
#
# Revision: 1
# Processed by: cddbd v1.5.2PL0 Copyright (c) Steve Scherf et al.
# Submitted via: ExactAudioCopy v0.99pb3
#
DISCID=fc0b7011
DTITLE=Fanfare Pourpour (Lars Holmer) - Karusell Musik
DYEAR=2007
DGENRE=Jazz
TTITLE0=Ännu ingen pelle
TTITLE1=En grekisk faster
TTITLE2=Änte flöttar ja te sjöss
TTITLE3=Archevals
TTITLE4=Karusell Musik
TTITLE5=Inte quarta
TTITLE6=Avlägsen strandvals
TTITLE7=Skiss mellan brest och segosero
TTITLE8=Experiment
TTITLE9=Cirkus 1
TTITLE10=Cirkus 2
TTITLE11=Sarasnoa
TTITLE12=Eyeliner
TTITLE13=Det maste bli gjort
TTITLE14=Boeves psalm
TTITLE15=Pompen
TTITLE16=Simfageldans
EXTD=
EXTT0=
EXTT1=
EXTT2=
EXTT3=
EXTT4=
EXTT5=
EXTT6=
EXTT7=
EXTT8=
EXTT9=
EXTT10=
EXTT11=
EXTT12=
EXTT13=
EXTT14=
EXTT15=
EXTT16=
PLAYORDER=
